<svg width="174.29" height="75.54" viewBox="0 0 174.29 75.54" xmlns="http://www.w3.org/2000/svg" xmlns:xlink="http://www.w3.org/1999/xlink" overflow="hidden"><defs></defs><linearGradient x1="0.8739" y1="36.0192" x2="173.417" y2="36.0192" gradientUnits="userSpaceOnUse" id="SVGID_1_"><stop offset="0" stop-color="#707070"/><stop offset="0.2958" stop-color="#F7F7F7"/><stop offset="0.5366" stop-color="#B3B3B3"/><stop offset="0.7775" stop-color="#F7F7F7"/><stop offset="0.8114" stop-color="#EFEFEF"/><stop offset="0.8629" stop-color="#DADADA"/><stop offset="0.9257" stop-color="#B8B8B8"/><stop offset="0.9968" stop-color="#888888"/><stop offset="1" stop-color="#868686"/></linearGradient><defs><filter id="Adobe_OpacityMaskFilter" x="31.09" y="28.65" width="4.24" height="4.24" filterUnits="userSpaceOnUse" primitiveUnits="userSpaceOnUse"><feFlood flood-color="#FFFFFF" result="back"/><feBlend in="SourceGraphic" in2="back" mode="normal"/></filter></defs><mask maskUnits="userSpaceOnUse" x="31.09" y="28.65" width="4.24" height="4.24" id="SVGID_2_"><g filter="url(#Adobe_OpacityMaskFilter)"><defs><filter id="Adobe_OpacityMaskFilter_1_" x="31.09" y="28.65" width="4.24" height="4.24" filterUnits="userSpaceOnUse" primitiveUnits="userSpaceOnUse"><feFlood flood-color="#FFFFFF" result="back"/><feBlend in="SourceGraphic" in2="back" mode="normal"/></filter></defs><mask maskUnits="userSpaceOnUse" x="31.09" y="28.65" width="4.24" height="4.24" id="SVGID_2_"><g filter="url(#Adobe_OpacityMaskFilter_1_)"></g></mask><radialGradient cx="33.2154" cy="30.7712" r="2.1222" gradientUnits="userSpaceOnUse" id="SVGID_3_"><stop offset="0" stop-color="#FFFFFF"/><stop offset="0.4634" stop-color="#FDFDFD"/><stop offset="0.5269" stop-color="#C5C5C5"/><stop offset="0.5936" stop-color="#919191"/><stop offset="0.6615" stop-color="#656565"/><stop offset="0.7294" stop-color="#404040"/><stop offset="0.7972" stop-color="#242424"/><stop offset="0.8648" stop-color="#101010"/><stop offset="0.9324" stop-color="#040404"/><stop offset="1"/></radialGradient><circle cx="33.22" cy="30.77" r="2.12" fill="url(#SVGID_3_)" mask="url(#SVGID_2_)"/></g></mask><radialGradient cx="33.2154" cy="30.7712" r="2.1222" gradientUnits="userSpaceOnUse" id="SVGID_4_"><stop offset="0" stop-color="#29ABE2"/><stop offset="0.454" stop-color="#29ABE2"/><stop offset="0.4634" stop-color="#29ABE2"/><stop offset="0.4637" stop-color="#29ABE2"/><stop offset="1" stop-color="#29ABE2"/></radialGradient><defs><filter id="Adobe_OpacityMaskFilter_2_" x="138.95" y="28.65" width="4.24" height="4.24" filterUnits="userSpaceOnUse" primitiveUnits="userSpaceOnUse"><feFlood flood-color="#FFFFFF" result="back"/><feBlend in="SourceGraphic" in2="back" mode="normal"/></filter></defs><mask maskUnits="userSpaceOnUse" x="138.95" y="28.65" width="4.24" height="4.24" id="SVGID_5_"><g filter="url(#Adobe_OpacityMaskFilter_2_)"><defs><filter id="Adobe_OpacityMaskFilter_3_" x="138.95" y="28.65" width="4.24" height="4.24" filterUnits="userSpaceOnUse" primitiveUnits="userSpaceOnUse"><feFlood flood-color="#FFFFFF" result="back"/><feBlend in="SourceGraphic" in2="back" mode="normal"/></filter></defs><mask maskUnits="userSpaceOnUse" x="138.95" y="28.65" width="4.24" height="4.24" id="SVGID_5_"><g filter="url(#Adobe_OpacityMaskFilter_3_)"></g></mask><radialGradient cx="141.076" cy="30.7712" r="2.1222" gradientUnits="userSpaceOnUse" id="SVGID_6_"><stop offset="0" stop-color="#FFFFFF"/><stop offset="0.4634" stop-color="#FDFDFD"/><stop offset="0.5269" stop-color="#C5C5C5"/><stop offset="0.5936" stop-color="#919191"/><stop offset="0.6615" stop-color="#656565"/><stop offset="0.7294" stop-color="#404040"/><stop offset="0.7972" stop-color="#242424"/><stop offset="0.8648" stop-color="#101010"/><stop offset="0.9324" stop-color="#040404"/><stop offset="1"/></radialGradient><circle cx="141.08" cy="30.77" r="2.12" fill="url(#SVGID_6_)" mask="url(#SVGID_5_)"/></g></mask><radialGradient cx="141.076" cy="30.7712" r="2.1222" gradientUnits="userSpaceOnUse" id="SVGID_7_"><stop offset="0" stop-color="#29ABE2"/><stop offset="0.454" stop-color="#29ABE2"/><stop offset="0.4634" stop-color="#29ABE2"/><stop offset="0.4637" stop-color="#29ABE2"/><stop offset="1" stop-color="#29ABE2"/></radialGradient><defs><filter id="Adobe_OpacityMaskFilter_4_" x="101.36" y="54.63" width="4.24" height="4.24" filterUnits="userSpaceOnUse" primitiveUnits="userSpaceOnUse"><feFlood flood-color="#FFFFFF" result="back"/><feBlend in="SourceGraphic" in2="back" mode="normal"/></filter></defs><mask maskUnits="userSpaceOnUse" x="101.36" y="54.63" width="4.24" height="4.24" id="SVGID_8_"><g filter="url(#Adobe_OpacityMaskFilter_4_)"><defs><filter id="Adobe_OpacityMaskFilter_5_" x="101.36" y="54.63" width="4.24" height="4.24" filterUnits="userSpaceOnUse" primitiveUnits="userSpaceOnUse"><feFlood flood-color="#FFFFFF" result="back"/><feBlend in="SourceGraphic" in2="back" mode="normal"/></filter></defs><mask maskUnits="userSpaceOnUse" x="101.36" y="54.63" width="4.24" height="4.24" id="SVGID_8_"><g filter="url(#Adobe_OpacityMaskFilter_5_)"></g></mask><radialGradient cx="103.484" cy="56.7567" r="2.1222" gradientUnits="userSpaceOnUse" id="SVGID_9_"><stop offset="0" stop-color="#FFFFFF"/><stop offset="0.4634" stop-color="#FDFDFD"/><stop offset="0.5269" stop-color="#C5C5C5"/><stop offset="0.5936" stop-color="#919191"/><stop offset="0.6615" stop-color="#656565"/><stop offset="0.7294" stop-color="#404040"/><stop offset="0.7972" stop-color="#242424"/><stop offset="0.8648" stop-color="#101010"/><stop offset="0.9324" stop-color="#040404"/><stop offset="1"/></radialGradient><circle cx="103.48" cy="56.76" r="2.12" fill="url(#SVGID_9_)" mask="url(#SVGID_8_)"/></g></mask><radialGradient cx="103.484" cy="56.7567" r="2.1222" gradientUnits="userSpaceOnUse" id="SVGID_10_"><stop offset="0" stop-color="#29ABE2"/><stop offset="0.454" stop-color="#29ABE2"/><stop offset="0.4634" stop-color="#29ABE2"/><stop offset="0.4637" stop-color="#29ABE2"/><stop offset="1" stop-color="#29ABE2"/></radialGradient><g opacity="0.48"><path d="M136.76 75.03C136.76 75.31 114.55 75.54 87.15 75.54 59.75 75.54 37.54 75.31 37.54 75.03 37.54 74.75 59.75 74.52 87.15 74.52 114.55 74.52 136.76 74.75 136.76 75.03Z" opacity="0.75"/></g><path d="M36.02 72.04C26.4 72.04 17.35 68.29 10.55 61.49 3.75 54.69 0 45.64 0 36.02 0 26.4 3.75 17.35 10.55 10.55 17.35 3.75 26.4 0 36.02 0L138.27 0C147.89 0 156.94 3.75 163.74 10.55 170.54 17.35 174.29 26.4 174.29 36.02 174.29 45.64 170.54 54.69 163.74 61.49 156.94 68.29 147.89 72.04 138.27 72.04L36.02 72.04Z" fill="#29ABE2"/><path d="M36.02 71.16C26.63 71.16 17.81 67.5 11.17 60.87 4.53 54.23 0.87 45.41 0.87 36.02 0.87 26.63 4.53 17.81 11.16 11.17 17.79 4.53 26.63 0.87 36.02 0.87L138.27 0.87C147.66 0.87 156.48 4.53 163.12 11.16 169.76 17.8 173.41 26.62 173.41 36.01 173.41 45.4 169.75 54.22 163.12 60.86 156.48 67.5 147.66 71.15 138.27 71.15L36.02 71.15Z" fill="url(#SVGID_1_)"/><path d="M138.27 70.29 36.02 70.29C17.09 70.29 1.75 54.95 1.75 36.02L1.75 36.02C1.75 17.09 17.09 1.75 36.02 1.75L138.27 1.75C157.2 1.75 172.54 17.09 172.54 36.02L172.54 36.02C172.54 54.95 157.2 70.29 138.27 70.29Z"/><rect x="28.71" y="11.48" width="116.87" height="49.08" fill="#1C1C1C"/><g><g><path d="M36.74 65.31C36.72 64.86 36.69 64.33 36.69 63.93L36.68 63.93C36.57 64.31 36.44 64.7 36.28 65.15L35.71 66.7 35.4 66.7 34.88 65.17C34.73 64.72 34.6 64.3 34.51 63.92L34.5 63.92C34.49 64.32 34.47 64.86 34.44 65.34L34.35 66.71 33.96 66.71 34.18 63.51 34.71 63.51 35.26 65.06C35.39 65.45 35.5 65.81 35.58 66.14L35.59 66.14C35.67 65.82 35.78 65.46 35.93 65.06L36.5 63.51 37.03 63.51 37.23 66.71 36.83 66.71 36.74 65.31Z" fill="#CCCCCC"/><path d="M40.6 65.08C40.6 66.18 39.93 66.77 39.11 66.77 38.26 66.77 37.67 66.11 37.67 65.14 37.67 64.12 38.3 63.46 39.16 63.46 40.03 63.46 40.6 64.13 40.6 65.08ZM38.11 65.14C38.11 65.82 38.48 66.44 39.13 66.44 39.79 66.44 40.16 65.84 40.16 65.11 40.16 64.47 39.83 63.81 39.14 63.81 38.45 63.8 38.11 64.43 38.11 65.14Z" fill="#CCCCCC"/><path d="M41.14 66.72 41.14 63.52 41.59 63.52 42.62 65.14C42.86 65.52 43.04 65.85 43.2 66.18L43.21 66.18C43.17 65.75 43.16 65.36 43.16 64.86L43.16 63.52 43.55 63.52 43.55 66.72 43.13 66.72 42.11 65.09C41.89 64.73 41.67 64.37 41.51 64.02L41.5 64.02C41.52 64.42 41.53 64.81 41.53 65.34L41.53 66.71 41.14 66.71Z" fill="#CCCCCC"/></g><g><path d="M52.18 63.87 51.21 63.87 51.21 63.52 53.58 63.52 53.58 63.87 52.6 63.87 52.6 66.72 52.18 66.72 52.18 63.87Z" fill="#CCCCCC"/><path d="M54.35 63.52 54.35 65.42C54.35 66.14 54.67 66.44 55.1 66.44 55.58 66.44 55.88 66.13 55.88 65.42L55.88 63.52 56.3 63.52 56.3 65.39C56.3 66.37 55.78 66.78 55.09 66.78 54.43 66.78 53.94 66.4 53.94 65.41L53.94 63.52 54.35 63.52Z" fill="#CCCCCC"/><path d="M58.67 65.22 57.42 65.22 57.42 66.38 58.81 66.38 58.81 66.73 57.01 66.73 57.01 63.53 58.74 63.53 58.74 63.88 57.42 63.88 57.42 64.89 58.67 64.89 58.67 65.22Z" fill="#CCCCCC"/></g><g><path d="M67.56 66.72 66.75 63.52 67.19 63.52 67.57 65.14C67.67 65.54 67.75 65.94 67.81 66.25L67.82 66.25C67.87 65.93 67.97 65.55 68.08 65.14L68.51 63.52 68.94 63.52 69.33 65.15C69.42 65.53 69.51 65.91 69.55 66.25L69.56 66.25C69.63 65.9 69.72 65.54 69.82 65.14L70.24 63.52 70.66 63.52 69.75 66.72 69.32 66.72 68.92 65.05C68.82 64.64 68.75 64.33 68.71 64L68.7 64C68.64 64.32 68.57 64.63 68.45 65.05L68 66.72 67.56 66.72Z" fill="#CCCCCC"/><path d="M72.72 65.22 71.47 65.22 71.47 66.38 72.86 66.38 72.86 66.73 71.06 66.73 71.06 63.53 72.79 63.53 72.79 63.88 71.47 63.88 71.47 64.89 72.72 64.89 72.72 65.22Z" fill="#CCCCCC"/><path d="M73.4 66.72 73.4 63.52 73.85 63.52 74.88 65.14C75.12 65.52 75.3 65.85 75.46 66.18L75.47 66.18C75.43 65.75 75.42 65.36 75.42 64.86L75.42 63.52 75.81 63.52 75.81 66.72 75.39 66.72 74.37 65.09C74.15 64.73 73.93 64.37 73.77 64.02L73.76 64.02C73.78 64.42 73.79 64.81 73.79 65.34L73.79 66.71 73.4 66.71Z" fill="#CCCCCC"/></g><g><path d="M84.43 63.87 83.46 63.87 83.46 63.52 85.83 63.52 85.83 63.87 84.85 63.87 84.85 66.72 84.43 66.72 84.43 63.87Z" fill="#CCCCCC"/><path d="M86.6 63.52 86.6 64.86 88.15 64.86 88.15 63.52 88.57 63.52 88.57 66.72 88.15 66.72 88.15 65.22 86.6 65.22 86.6 66.72 86.19 66.72 86.19 63.52 86.6 63.52Z" fill="#CCCCCC"/><path d="M89.69 63.52 89.69 65.42C89.69 66.14 90.01 66.44 90.44 66.44 90.92 66.44 91.22 66.13 91.22 65.42L91.22 63.52 91.64 63.52 91.64 65.39C91.64 66.37 91.12 66.78 90.43 66.78 89.77 66.78 89.28 66.4 89.28 65.41L89.28 63.52 89.69 63.52Z" fill="#CCCCCC"/></g><g><path d="M101.17 63.52 102.9 63.52 102.9 63.87 101.59 63.87 101.59 64.93 102.8 64.93 102.8 65.27 101.59 65.27 101.59 66.72 101.18 66.72 101.18 63.52Z" fill="#CCCCCC"/><path d="M103.48 63.56C103.69 63.52 103.99 63.49 104.27 63.49 104.71 63.49 105 63.57 105.2 63.75 105.36 63.89 105.45 64.11 105.45 64.36 105.45 64.78 105.18 65.06 104.85 65.18L104.85 65.19C105.1 65.28 105.24 65.5 105.32 65.84 105.42 66.29 105.5 66.6 105.57 66.72L105.14 66.72C105.09 66.63 105.02 66.35 104.93 65.95 104.83 65.51 104.66 65.34 104.29 65.33L103.9 65.33 103.9 66.72 103.49 66.72 103.49 63.56ZM103.9 65.02 104.32 65.02C104.76 65.02 105.04 64.78 105.04 64.41 105.04 64 104.74 63.82 104.3 63.81 104.1 63.81 103.96 63.83 103.89 63.85L103.89 65.02Z" fill="#CCCCCC"/><path d="M106.46 63.52 106.46 66.72 106.05 66.72 106.05 63.52 106.46 63.52Z" fill="#CCCCCC"/></g><g><path d="M116.66 66.22C116.85 66.33 117.12 66.43 117.4 66.43 117.82 66.43 118.07 66.21 118.07 65.88 118.07 65.58 117.9 65.41 117.47 65.24 116.95 65.05 116.62 64.78 116.62 64.33 116.62 63.83 117.03 63.46 117.66 63.46 117.99 63.46 118.23 63.54 118.37 63.62L118.26 63.96C118.16 63.9 117.94 63.81 117.65 63.81 117.21 63.81 117.05 64.07 117.05 64.29 117.05 64.59 117.24 64.74 117.69 64.91 118.23 65.12 118.51 65.38 118.51 65.85 118.51 66.34 118.14 66.77 117.39 66.77 117.08 66.77 116.74 66.68 116.57 66.57L116.66 66.22Z" fill="#CCCCCC"/><path d="M119.58 65.71 119.25 66.72 118.82 66.72 119.91 63.52 120.41 63.52 121.5 66.72 121.06 66.72 120.72 65.71 119.58 65.71ZM120.63 65.39 120.32 64.47C120.25 64.26 120.2 64.07 120.15 63.89L120.14 63.89C120.09 64.08 120.04 64.28 119.98 64.47L119.67 65.4 120.63 65.4Z" fill="#CCCCCC"/><path d="M122.21 63.87 121.24 63.87 121.24 63.52 123.61 63.52 123.61 63.87 122.63 63.87 122.63 66.72 122.21 66.72 122.21 63.87Z" fill="#CCCCCC"/></g><g><path d="M132.46 66.2C132.65 66.31 132.92 66.41 133.2 66.41 133.62 66.41 133.87 66.19 133.87 65.86 133.87 65.56 133.7 65.39 133.27 65.22 132.75 65.03 132.42 64.76 132.42 64.31 132.42 63.81 132.83 63.44 133.46 63.44 133.79 63.44 134.03 63.52 134.17 63.6L134.06 63.94C133.96 63.88 133.74 63.79 133.45 63.79 133.01 63.79 132.85 64.05 132.85 64.27 132.85 64.57 133.04 64.72 133.49 64.89 134.03 65.1 134.31 65.36 134.31 65.83 134.31 66.32 133.94 66.75 133.19 66.75 132.88 66.75 132.54 66.66 132.37 66.55L132.46 66.2Z" fill="#CCCCCC"/><path d="M135.27 63.5 135.27 65.4C135.27 66.12 135.59 66.42 136.02 66.42 136.5 66.42 136.8 66.11 136.8 65.4L136.8 63.5 137.22 63.5 137.22 65.37C137.22 66.35 136.7 66.76 136.01 66.76 135.35 66.76 134.86 66.38 134.86 65.39L134.86 63.5 135.27 63.5Z" fill="#CCCCCC"/><path d="M137.93 66.71 137.93 63.51 138.38 63.51 139.41 65.13C139.65 65.51 139.83 65.84 139.99 66.17L140 66.17C139.96 65.74 139.95 65.35 139.95 64.85L139.95 63.5 140.34 63.5 140.34 66.7 139.92 66.7 138.9 65.07C138.68 64.71 138.46 64.35 138.3 64L138.29 64C138.31 64.4 138.32 64.79 138.32 65.32L138.32 66.69 137.93 66.69Z" fill="#CCCCCC"/></g></g><g><path d="M19.35 31.07 19.02 32.08 18.59 32.08 19.68 28.88 20.18 28.88 21.27 32.08 20.83 32.08 20.49 31.07 19.35 31.07ZM20.4 30.75 20.09 29.83C20.02 29.62 19.97 29.43 19.92 29.25L19.91 29.25C19.86 29.44 19.81 29.64 19.75 29.83L19.44 30.76 20.4 30.76Z" fill="#CCCCCC"/><path d="M24.42 30.67C24.4 30.22 24.37 29.69 24.37 29.29L24.36 29.29C24.25 29.67 24.12 30.06 23.96 30.51L23.39 32.06 23.08 32.06 22.56 30.53C22.41 30.08 22.28 29.66 22.19 29.28L22.18 29.28C22.17 29.68 22.15 30.22 22.12 30.7L22.03 32.07 21.64 32.07 21.86 28.87 22.39 28.87 22.94 30.42C23.07 30.81 23.18 31.17 23.26 31.5L23.27 31.5C23.35 31.18 23.46 30.82 23.61 30.42L24.18 28.87 24.71 28.87 24.91 32.07 24.51 32.07 24.42 30.67Z" fill="#CCCCCC"/></g><g><path d="M18.92 40.16C19.12 40.13 19.38 40.1 19.71 40.1 20.12 40.1 20.42 40.2 20.61 40.37 20.79 40.52 20.89 40.76 20.89 41.04 20.89 41.33 20.8 41.56 20.64 41.72 20.42 41.95 20.06 42.07 19.66 42.07 19.54 42.07 19.42 42.07 19.33 42.04L19.33 43.32 18.92 43.32 18.92 40.16ZM19.33 41.71C19.42 41.73 19.53 41.74 19.67 41.74 20.17 41.74 20.47 41.5 20.47 41.06 20.47 40.64 20.17 40.43 19.71 40.43 19.53 40.43 19.39 40.44 19.32 40.46L19.32 41.71Z" fill="#CCCCCC"/><path d="M24.09 41.92C24.07 41.47 24.04 40.94 24.04 40.54L24.03 40.54C23.92 40.92 23.79 41.31 23.63 41.76L23.06 43.31 22.75 43.31 22.23 41.78C22.08 41.33 21.95 40.91 21.86 40.53L21.85 40.53C21.84 40.93 21.82 41.47 21.79 41.95L21.7 43.32 21.31 43.32 21.53 40.12 22.06 40.12 22.61 41.67C22.74 42.06 22.85 42.42 22.93 42.75L22.94 42.75C23.02 42.43 23.13 42.07 23.28 41.67L23.85 40.12 24.38 40.12 24.58 43.32 24.18 43.32 24.09 41.92Z" fill="#CCCCCC"/></g><g><path d="M150.08 31.08 149.75 32.09 149.32 32.09 150.41 28.89 150.91 28.89 152 32.09 151.56 32.09 151.22 31.08 150.08 31.08ZM151.13 30.76 150.82 29.84C150.75 29.63 150.7 29.44 150.65 29.26L150.64 29.26C150.59 29.45 150.54 29.65 150.48 29.84L150.17 30.77 151.13 30.77Z" fill="#CCCCCC"/><path d="M152.47 28.88 152.88 28.88 152.88 31.74 154.25 31.74 154.25 32.09 152.47 32.09 152.47 28.88Z" fill="#CCCCCC"/><path d="M155.23 31.08 154.9 32.09 154.47 32.09 155.56 28.89 156.06 28.89 157.15 32.09 156.71 32.09 156.37 31.08 155.23 31.08ZM156.28 30.76 155.97 29.84C155.9 29.63 155.85 29.44 155.8 29.26L155.79 29.26C155.74 29.45 155.69 29.65 155.63 29.84L155.32 30.77 156.28 30.77Z" fill="#CCCCCC"/><path d="M157.62 28.93C157.83 28.89 158.13 28.86 158.41 28.86 158.85 28.86 159.14 28.94 159.34 29.12 159.5 29.26 159.59 29.48 159.59 29.73 159.59 30.15 159.32 30.43 158.99 30.55L158.99 30.56C159.24 30.65 159.38 30.87 159.46 31.21 159.56 31.66 159.64 31.97 159.71 32.09L159.28 32.09C159.23 32 159.16 31.72 159.07 31.32 158.97 30.88 158.8 30.71 158.43 30.7L158.04 30.7 158.04 32.09 157.63 32.09 157.63 28.93ZM158.03 30.39 158.45 30.39C158.89 30.39 159.17 30.15 159.17 29.78 159.17 29.37 158.87 29.19 158.43 29.18 158.23 29.18 158.09 29.2 158.02 29.22L158.02 30.39Z" fill="#CCCCCC"/><path d="M162.88 30.68C162.86 30.23 162.83 29.7 162.83 29.3L162.82 29.3C162.71 29.68 162.58 30.07 162.42 30.52L161.85 32.07 161.54 32.07 161.02 30.54C160.87 30.09 160.74 29.67 160.65 29.29L160.64 29.29C160.63 29.69 160.61 30.23 160.58 30.71L160.49 32.08 160.1 32.08 160.32 28.88 160.85 28.88 161.4 30.43C161.53 30.82 161.64 31.18 161.72 31.51L161.73 31.51C161.81 31.19 161.92 30.83 162.07 30.43L162.64 28.88 163.17 28.88 163.37 32.08 162.97 32.08 162.88 30.68Z" fill="#CCCCCC"/></g><circle cx="33.22" cy="30.77" r="2.12" fill="url(#SVGID_4_)"/><circle cx="141.08" cy="30.77" r="2.12" fill="url(#SVGID_7_)"/><circle cx="103.48" cy="56.76" r="2.12" fill="url(#SVGID_10_)"/><g><linearGradient x1="37.866" y1="73.5363" x2="54.3664" y2="73.5363" gradientUnits="userSpaceOnUse" id="SVGID_11_"><stop offset="0" stop-color="#333333"/><stop offset="0.2696" stop-color="#CCCCCC"/><stop offset="0.5366" stop-color="#666666"/><stop offset="0.7775" stop-color="#B3B3B3"/><stop offset="0.8085" stop-color="#ABABAB"/><stop offset="0.8558" stop-color="#969696"/><stop offset="0.9134" stop-color="#747474"/><stop offset="0.9785" stop-color="#444444"/><stop offset="1" stop-color="#333333"/></linearGradient><linearGradient x1="119.924" y1="73.5363" x2="136.425" y2="73.5363" gradientUnits="userSpaceOnUse" id="SVGID_12_"><stop offset="0" stop-color="#333333"/><stop offset="0.2696" stop-color="#CCCCCC"/><stop offset="0.5366" stop-color="#666666"/><stop offset="0.7775" stop-color="#B3B3B3"/><stop offset="0.8085" stop-color="#ABABAB"/><stop offset="0.8558" stop-color="#969696"/><stop offset="0.9134" stop-color="#747474"/><stop offset="0.9785" stop-color="#444444"/><stop offset="1" stop-color="#333333"/></linearGradient><rect x="37.87" y="72.04" width="16.5" height="3" fill="url(#SVGID_11_)"/><rect x="119.92" y="72.04" width="16.5" height="3" fill="url(#SVGID_12_)"/></g></svg>